<svg xmlns="http://www.w3.org/2000/svg" width="26" height="26" viewBox="0 0 26 26" fill="none">
    <path d="M13 25C19.6276 25 25 19.6276 25 13C25 6.3724 19.6276 1 13 1C6.3724 1 1 6.3724 1 13C1 14.92 1.4512 16.7344 2.2516 18.3436C2.4652 18.7708 2.536 19.2592 2.4124 19.7212L1.6984 22.3924C1.62768 22.6568 1.62775 22.9351 1.69859 23.1994C1.76942 23.4637 1.90854 23.7047 2.10198 23.8983C2.29541 24.0918 2.53636 24.2311 2.80063 24.3021C3.06491 24.3731 3.34321 24.3734 3.6076 24.3028L6.2788 23.5876C6.74249 23.4709 7.23283 23.5277 7.6576 23.7472C9.31711 24.5736 11.1461 25.0025 13 25Z" stroke="#4AF11F" stroke-width="1.5"/>
    <path d="M13.0001 9.99986L12.3569 10.6287C12.4407 10.7143 12.5407 10.7823 12.6512 10.8288C12.7616 10.8752 12.8803 10.8991 13.0001 10.8991C13.1199 10.8991 13.2385 10.8752 13.349 10.8288C13.4594 10.7823 13.5595 10.7143 13.6433 10.6287L13.0001 9.99986ZM11.2181 15.8451C10.5197 15.2523 9.81887 14.5635 9.29927 13.8531C8.77007 13.1271 8.50007 12.4743 8.50007 11.9307H6.70007C6.70007 13.0299 7.22207 14.0595 7.84607 14.9139C8.48087 15.7839 9.29807 16.5747 10.0517 17.2167L11.2181 15.8451ZM8.50007 11.9307C8.50007 10.6023 9.09407 9.90386 9.70367 9.67466C10.3253 9.44306 11.3141 9.56666 12.3569 10.6311L13.6433 9.37226C12.2561 7.95626 10.5461 7.43786 9.07367 7.98866C7.59167 8.54306 6.70007 10.0479 6.70007 11.9307H8.50007ZM15.9485 17.2179C16.7021 16.5771 17.5193 15.7851 18.1541 14.9163C18.7781 14.0607 19.3001 13.0311 19.3001 11.9319H17.5001C17.5001 12.4755 17.2301 13.1283 16.7009 13.8543C16.1813 14.5659 15.4805 15.2535 14.7833 15.8463L15.9485 17.2179ZM19.3001 11.9319C19.3001 10.0479 18.4085 8.54306 16.9265 7.98866C15.4541 7.43786 13.7441 7.95506 12.3569 9.37226L13.6433 10.6323C14.6861 9.56666 15.6761 9.44306 16.2953 9.67466C16.9073 9.90266 17.5001 10.6035 17.5001 11.9319H19.3001ZM10.0517 17.2179C10.9877 18.0135 11.7317 18.6939 13.0001 18.6939V16.8939C12.5033 16.8939 12.2597 16.7319 11.2181 15.8451L10.0517 17.2179ZM14.7833 15.8463C13.7405 16.7331 13.4969 16.8939 13.0001 16.8939V18.6939C14.2685 18.6939 15.0137 18.0135 15.9485 17.2179L14.7833 15.8463Z" fill="#4AF11F"/>
</svg>