<svg xmlns="http://www.w3.org/2000/svg" width="60" height="60" viewBox="0 0 60 60" fill="none">
    <circle cx="30" cy="30" r="29.5" stroke="#D5DBE9"/>
    <path d="M41.9943 38.6749L41.9943 38.6748L32.4191 29.5L41.9943 20.3252L41.9943 20.3251C42.3154 20.0174 42.5 19.5954 42.5 19.1506C42.5 18.7058 42.3154 18.2837 41.9943 17.976C41.6739 17.669 41.2437 17.5 40.7994 17.5C40.3551 17.5 39.9249 17.669 39.6045 17.976L39.6045 17.976L30 27.1817L20.3955 17.976L20.3955 17.976C20.0751 17.669 19.6449 17.5 19.2006 17.5C18.7563 17.5 18.3261 17.669 18.0057 17.976C17.6846 18.2837 17.5 18.7058 17.5 19.1506C17.5 19.5954 17.6846 20.0174 18.0057 20.3251L18.0057 20.3252L27.5809 29.5L18.0057 38.6748L18.0057 38.6748C17.6846 38.9826 17.5 39.4046 17.5 39.8494C17.5 40.2942 17.6846 40.7163 18.0057 41.024C18.3261 41.331 18.7563 41.5 19.2006 41.5C19.6449 41.5 20.0751 41.331 20.3955 41.024L20.3955 41.024L30 31.8183L39.6045 41.024L39.6045 41.024C39.7633 41.1762 39.9507 41.2959 40.1555 41.3771C40.3602 41.4584 40.579 41.5 40.7994 41.5C41.0198 41.5 41.2386 41.4584 41.4433 41.3771C41.6481 41.2959 41.8355 41.1762 41.9943 41.024C42.1532 40.8718 42.2804 40.6899 42.3676 40.4881C42.4548 40.2863 42.5 40.0692 42.5 39.8494C42.5 39.6296 42.4548 39.4125 42.3676 39.2107C42.2804 39.009 42.1532 38.8271 41.9943 38.6749Z" fill="#7640EE" stroke="#7640EE"/>
</svg>