<svg xmlns="http://www.w3.org/2000/svg" width="60" height="60" viewBox="0 0 60 60" fill="none">
    <circle cx="30" cy="30" r="29.5" stroke="#D5DBE9"/>
    <path d="M30.55 36.3477L36.85 40.0977C37.6625 40.5782 38.6625 39.8633 38.425 38.9844L36.6 32.2578C36.5506 32.0714 36.5585 31.8757 36.6226 31.6932C36.6868 31.5108 36.8046 31.349 36.9625 31.2266L42.6125 26.8086C43.35 26.2344 42.975 25.0742 42.0125 25.0157L34.6375 24.5703C34.4363 24.5594 34.2428 24.4937 34.0808 24.3813C33.9187 24.2689 33.7951 24.1147 33.725 23.9375L30.975 17.4453C30.9022 17.2577 30.7696 17.0957 30.5952 16.9811C30.4207 16.8666 30.2129 16.8052 30 16.8052C29.787 16.8052 29.5793 16.8666 29.4048 16.9811C29.2304 17.0957 29.0978 17.2577 29.025 17.4453L26.275 23.9375C26.2049 24.1147 26.0813 24.2689 25.9192 24.3813C25.7572 24.4937 25.5637 24.5594 25.3625 24.5703L17.9875 25.0157C17.025 25.0742 16.65 26.2344 17.3875 26.8086L23.0375 31.2266C23.1954 31.349 23.3132 31.5108 23.3774 31.6932C23.4415 31.8757 23.4493 32.0714 23.4 32.2578L21.7125 38.4922C21.425 39.5469 22.625 40.4024 23.5875 39.8282L29.45 36.3477C29.6144 36.2497 29.8052 36.1976 30 36.1976C30.1948 36.1976 30.3856 36.2497 30.55 36.3477V36.3477Z" stroke="#FF8A00" stroke-width="3" stroke-linecap="round" stroke-linejoin="round"/>
</svg>