<svg width="33" height="25" viewBox="0 0 33 25" fill="none" xmlns="http://www.w3.org/2000/svg">
<path d="M30.9375 25C30.9375 25 33 25 33 22.9167C33 20.8333 30.9375 14.5833 22.6875 14.5833C14.4375 14.5833 12.375 20.8333 12.375 22.9167C12.375 25 14.4375 25 14.4375 25H30.9375ZM14.4829 22.9167L14.4375 22.9083C14.4396 22.3583 14.7819 20.7625 16.005 19.325C17.1435 17.9771 19.1441 16.6667 22.6875 16.6667C26.2288 16.6667 28.2294 17.9792 29.37 19.325C30.5931 20.7625 30.9334 22.3604 30.9375 22.9083L30.921 22.9125L30.8921 22.9167H14.4829ZM22.6875 10.4167C23.7815 10.4167 24.8307 9.97768 25.6043 9.19628C26.3779 8.41488 26.8125 7.35507 26.8125 6.25C26.8125 5.14493 26.3779 4.08512 25.6043 3.30372C24.8307 2.52232 23.7815 2.08333 22.6875 2.08333C21.5935 2.08333 20.5443 2.52232 19.7707 3.30372C18.9971 4.08512 18.5625 5.14493 18.5625 6.25C18.5625 7.35507 18.9971 8.41488 19.7707 9.19628C20.5443 9.97768 21.5935 10.4167 22.6875 10.4167ZM28.875 6.25C28.875 7.07076 28.715 7.88349 28.404 8.64177C28.0931 9.40006 27.6373 10.0891 27.0627 10.6694C26.4882 11.2498 25.8061 11.7102 25.0554 12.0242C24.3047 12.3383 23.5001 12.5 22.6875 12.5C21.8749 12.5 21.0703 12.3383 20.3196 12.0242C19.5689 11.7102 18.8868 11.2498 18.3123 10.6694C17.7377 10.0891 17.2819 9.40006 16.971 8.64177C16.66 7.88349 16.5 7.07076 16.5 6.25C16.5 4.5924 17.1519 3.00269 18.3123 1.83058C19.4727 0.658481 21.0465 0 22.6875 0C24.3285 0 25.9023 0.658481 27.0627 1.83058C28.2231 3.00269 28.875 4.5924 28.875 6.25ZM14.3055 15.1667C13.48 14.9061 12.6297 14.7336 11.7686 14.6521C11.2847 14.6044 10.7987 14.5815 10.3125 14.5833C2.0625 14.5833 0 20.8333 0 22.9167C0 24.3056 0.6875 25 2.0625 25H10.758C10.4524 24.3496 10.2999 23.6365 10.3125 22.9167C10.3125 20.8125 11.0901 18.6625 12.5606 16.8667C13.0618 16.2542 13.6455 15.6812 14.3055 15.1667ZM10.1475 16.6667C8.92758 18.5197 8.26824 20.6914 8.25 22.9167H2.0625C2.0625 22.375 2.40075 20.7708 3.63 19.325C4.75406 18 6.70725 16.7083 10.1475 16.6688V16.6667ZM3.09375 7.29167C3.09375 5.63406 3.74565 4.04435 4.90603 2.87225C6.06641 1.70015 7.64022 1.04167 9.28125 1.04167C10.9223 1.04167 12.4961 1.70015 13.6565 2.87225C14.8169 4.04435 15.4687 5.63406 15.4688 7.29167C15.4688 8.94927 14.8169 10.539 13.6565 11.7111C12.4961 12.8832 10.9223 13.5417 9.28125 13.5417C7.64022 13.5417 6.06641 12.8832 4.90603 11.7111C3.74565 10.539 3.09375 8.94927 3.09375 7.29167ZM9.28125 3.125C8.18723 3.125 7.13802 3.56399 6.36443 4.34539C5.59085 5.12679 5.15625 6.1866 5.15625 7.29167C5.15625 8.39674 5.59085 9.45654 6.36443 10.2379C7.13802 11.0193 8.18723 11.4583 9.28125 11.4583C10.3753 11.4583 11.4245 11.0193 12.1981 10.2379C12.9717 9.45654 13.4062 8.39674 13.4062 7.29167C13.4062 6.1866 12.9717 5.12679 12.1981 4.34539C11.4245 3.56399 10.3753 3.125 9.28125 3.125Z" fill="white"/>
</svg>
