<svg width="24" height="25" viewBox="0 0 24 25" fill="none" xmlns="http://www.w3.org/2000/svg">
<path d="M11.75 16.05C13.729 16.05 15.3333 14.4457 15.3333 12.4666C15.3333 10.4876 13.729 8.8833 11.75 8.8833C9.77094 8.8833 8.16663 10.4876 8.16663 12.4666C8.16663 14.4457 9.77094 16.05 11.75 16.05Z" stroke="#EDF2FC" stroke-width="1.5"/>
<path d="M13.7625 1.17429C13.344 1 12.8127 1 11.75 1C10.6873 1 10.156 1 9.73755 1.17429C9.46069 1.28955 9.20913 1.45855 8.99725 1.67163C8.78537 1.88471 8.61732 2.1377 8.50272 2.41613C8.39782 2.67184 8.35563 2.97112 8.33967 3.40571C8.33256 3.71988 8.24617 4.02709 8.08861 4.29847C7.93105 4.56985 7.70748 4.7965 7.43891 4.95715C7.16629 5.11085 6.85928 5.19233 6.54674 5.19393C6.23421 5.19554 5.92639 5.11721 5.65222 4.96632C5.26911 4.76221 4.99205 4.64984 4.71726 4.61315C4.11788 4.53388 3.51173 4.69721 3.03204 5.06723C2.67402 5.34587 2.40722 5.80797 1.87588 6.73333C1.34455 7.65869 1.07774 8.1208 1.01959 8.57373C0.980411 8.87238 1.00012 9.17588 1.07759 9.46687C1.15507 9.75786 1.28878 10.0306 1.47111 10.2697C1.63986 10.4898 1.87588 10.6744 2.24189 10.9061C2.7812 11.2466 3.12782 11.8268 3.12782 12.4667C3.12782 13.1065 2.7812 13.6867 2.24189 14.0261C1.87588 14.2589 1.63872 14.4435 1.47111 14.6637C1.28878 14.9027 1.15507 15.1755 1.07759 15.4665C1.00012 15.7575 0.980411 16.0609 1.01959 16.3596C1.07888 16.8114 1.34455 17.2746 1.87474 18.2C2.40722 19.1254 2.67288 19.5875 3.03204 19.8661C3.2697 20.0495 3.54095 20.1839 3.8303 20.2619C4.11965 20.3398 4.42143 20.3596 4.7184 20.3202C4.99205 20.2835 5.26911 20.1711 5.65222 19.967C5.92639 19.8161 6.23421 19.7378 6.54674 19.7394C6.85928 19.741 7.16629 19.8225 7.43891 19.9762C7.98963 20.2973 8.31686 20.8878 8.33967 21.5276C8.35563 21.9634 8.39668 22.2615 8.50272 22.5172C8.61732 22.7956 8.78537 23.0486 8.99725 23.2617C9.20913 23.4748 9.46069 23.6438 9.73755 23.759C10.156 23.9333 10.6873 23.9333 11.75 23.9333C12.8127 23.9333 13.344 23.9333 13.7625 23.759C14.0393 23.6438 14.2909 23.4748 14.5028 23.2617C14.7146 23.0486 14.8827 22.7956 14.9973 22.5172C15.1022 22.2615 15.1444 21.9634 15.1603 21.5276C15.1831 20.8878 15.5104 20.2961 16.0611 19.9762C16.3337 19.8225 16.6407 19.741 16.9533 19.7394C17.2658 19.7378 17.5736 19.8161 17.8478 19.967C18.2309 20.1711 18.508 20.2835 18.7816 20.3202C19.0786 20.3596 19.3803 20.3398 19.6697 20.2619C19.959 20.1839 20.2303 20.0495 20.468 19.8661C20.8271 19.5886 21.0928 19.1254 21.6241 18.2C22.1555 17.2746 22.4223 16.8125 22.4804 16.3596C22.5196 16.0609 22.4999 15.7575 22.4224 15.4665C22.3449 15.1755 22.2112 14.9027 22.0289 14.6637C21.8601 14.4435 21.6241 14.2589 21.2581 14.0273C20.991 13.864 20.7696 13.6351 20.6146 13.3621C20.4596 13.0891 20.3762 12.781 20.3722 12.4667C20.3722 11.8268 20.7188 11.2466 21.2581 10.9072C21.6241 10.6744 21.8613 10.4898 22.0289 10.2697C22.2112 10.0306 22.3449 9.75786 22.4224 9.46687C22.4999 9.17588 22.5196 8.87238 22.4804 8.57373C22.4211 8.12195 22.1554 7.65869 21.6253 6.73333C21.0928 5.80797 20.8271 5.34587 20.468 5.06723C20.2303 4.88386 19.959 4.74939 19.6697 4.67147C19.3803 4.59356 19.0786 4.57374 18.7816 4.61315C18.508 4.64984 18.2309 4.76221 17.8466 4.96632C17.5726 5.11701 17.265 5.19522 16.9527 5.19362C16.6404 5.19201 16.3336 5.11064 16.0611 4.95715C15.7925 4.7965 15.569 4.56985 15.4114 4.29847C15.2538 4.02709 15.1674 3.71988 15.1603 3.40571C15.1444 2.96997 15.1033 2.67184 14.9973 2.41613C14.8827 2.1377 14.7146 1.88471 14.5028 1.67163C14.2909 1.45855 14.0393 1.28955 13.7625 1.17429Z" stroke="#EDF2FC" stroke-width="1.5"/>
</svg>
