<svg width="30" height="30" viewBox="0 0 30 30" fill="none" xmlns="http://www.w3.org/2000/svg">
<circle cx="15" cy="15" r="14.5" stroke="#4AF11F"/>
<path d="M15.7862 15.286H15.2862V15.786V19.7145C15.2862 19.7903 15.2561 19.863 15.2025 19.9166C15.1489 19.9701 15.0763 20.0002 15.0005 20.0002C14.9247 20.0002 14.852 19.9701 14.7985 19.9166C14.7449 19.863 14.7148 19.7903 14.7148 19.7145V15.786V15.286H14.2148H10.2862C10.2104 15.286 10.1378 15.2559 10.0842 15.2023C10.0306 15.1487 10.0005 15.076 10.0005 15.0002C10.0005 14.9245 10.0306 14.8518 10.0842 14.7982C10.1378 14.7446 10.2104 14.7145 10.2862 14.7145H14.2148H14.7148V14.2145V10.286C14.7148 10.2102 14.7449 10.1375 14.7985 10.0839C14.852 10.0303 14.9247 10.0002 15.0005 10.0002C15.0763 10.0002 15.1489 10.0303 15.2025 10.0839C15.2561 10.1375 15.2862 10.2102 15.2862 10.286V14.2145V14.7145H15.7862H19.7148C19.7906 14.7145 19.8632 14.7446 19.9168 14.7982C19.9704 14.8518 20.0005 14.9245 20.0005 15.0002C20.0005 15.076 19.9704 15.1487 19.9168 15.2023C19.8632 15.2559 19.7906 15.286 19.7148 15.286H15.7862Z" stroke="#4AF11F"/>
</svg>
