<svg width="8" height="8" viewBox="0 0 8 8" fill="none" xmlns="http://www.w3.org/2000/svg">
<path d="M1.442 7.852C1.31133 7.92667 1.176 7.95 1.036 7.922C0.905333 7.894 0.788667 7.82867 0.686 7.726C0.592667 7.62333 0.546 7.49267 0.546 7.334C0.546 7.11 0.644 6.93267 0.84 6.802L5.922 3.764V4.366L0.84 1.342C0.644 1.22067 0.546 1.04333 0.546 0.809999C0.546 0.576666 0.644 0.413333 0.84 0.32C1.036 0.226666 1.23667 0.231333 1.442 0.334L6.79 3.554C7.00467 3.71267 7.112 3.89 7.112 4.086C7.112 4.31933 7.00467 4.50133 6.79 4.632L1.442 7.852Z" fill="#8C8D92"/>
</svg>
