<svg xmlns="http://www.w3.org/2000/svg" width="30" height="30" viewBox="0 0 30 30" fill="none">
    <path d="M18.125 28.75C17.6042 28.75 17.1617 28.5679 16.7975 28.2038C16.4333 27.8396 16.2508 27.3967 16.25 26.875V18.125C16.25 17.6042 16.4325 17.1617 16.7975 16.7975C17.1625 16.4333 17.605 16.2508 18.125 16.25H26.875C27.3958 16.25 27.8387 16.4325 28.2037 16.7975C28.5687 17.1625 28.7508 17.605 28.75 18.125V26.875C28.75 27.3958 28.5679 27.8388 28.2037 28.2038C27.8396 28.5688 27.3967 28.7508 26.875 28.75H18.125ZM18.125 26.875H26.875V25.875C26.3542 25.2292 25.7187 24.7138 24.9687 24.3288C24.2187 23.9438 23.3958 23.7508 22.5 23.75C21.6042 23.75 20.7812 23.9429 20.0312 24.3288C19.2812 24.7146 18.6458 25.23 18.125 25.875V26.875ZM22.5 22.5C23.0208 22.5 23.4637 22.3179 23.8287 21.9538C24.1937 21.5896 24.3758 21.1467 24.375 20.625C24.375 20.1042 24.1929 19.6617 23.8287 19.2975C23.4646 18.9333 23.0217 18.7508 22.5 18.75C21.9792 18.75 21.5367 18.9325 21.1725 19.2975C20.8083 19.6625 20.6258 20.105 20.625 20.625C20.625 21.1458 20.8075 21.5888 21.1725 21.9538C21.5375 22.3188 21.98 22.5008 22.5 22.5ZM15.0625 10.625C13.8542 10.625 12.8229 11.0521 11.9687 11.9062C11.1146 12.7604 10.6875 13.7917 10.6875 15C10.6875 16 10.9688 16.875 11.5312 17.625C12.0938 18.375 12.8333 18.8958 13.75 19.1875V16.375C13.5833 16.2083 13.4479 15.9946 13.3437 15.7338C13.2396 15.4729 13.1875 15.2283 13.1875 15C13.1875 14.4792 13.37 14.0367 13.735 13.6725C14.1 13.3083 14.5425 13.1258 15.0625 13.125C15.3542 13.125 15.6146 13.1825 15.8437 13.2975C16.0729 13.4125 16.2708 13.5633 16.4375 13.75H19.25C18.9792 12.8333 18.4637 12.0833 17.7037 11.5C16.9437 10.9167 16.0633 10.625 15.0625 10.625ZM11.5625 27.5L11.0625 23.5C10.7917 23.3958 10.5367 23.2708 10.2975 23.125C10.0583 22.9792 9.82375 22.8229 9.59375 22.6563L5.875 24.2188L2.4375 18.2813L5.65625 15.8438C5.63542 15.6979 5.625 15.5575 5.625 15.4225V14.5788C5.625 14.4429 5.63542 14.3021 5.65625 14.1563L2.4375 11.7188L5.875 5.78125L9.59375 7.34375C9.82292 7.17708 10.0625 7.02083 10.3125 6.875C10.5625 6.72917 10.8125 6.60417 11.0625 6.5L11.5625 2.5H18.4375L18.9375 6.5C19.2083 6.60417 19.4637 6.72917 19.7037 6.875C19.9437 7.02083 20.1779 7.17708 20.4062 7.34375L24.125 5.78125L27.5625 11.7188L24.9062 13.75H21.75C21.7292 13.6458 21.7083 13.5367 21.6875 13.4225C21.6667 13.3083 21.6354 13.1988 21.5937 13.0938L24.2812 11.0625L23.0625 8.9375L19.9687 10.25C19.5104 9.77083 19.005 9.37 18.4525 9.0475C17.9 8.725 17.3012 8.48 16.6562 8.3125L16.25 5H13.7812L13.3437 8.3125C12.6979 8.47917 12.0992 8.72417 11.5475 9.0475C10.9958 9.37083 10.4904 9.76125 10.0312 10.2188L6.9375 8.9375L5.71875 11.0625L8.40625 13.0625C8.30208 13.375 8.22917 13.6875 8.1875 14C8.14583 14.3125 8.125 14.6458 8.125 15C8.125 15.3333 8.14583 15.6563 8.1875 15.9688C8.22917 16.2813 8.30208 16.5938 8.40625 16.9063L5.71875 18.9375L6.9375 21.0625L10.0312 19.75C10.5312 20.2708 11.0937 20.7083 11.7187 21.0625C12.3437 21.4167 13.0208 21.6458 13.75 21.75V27.5H11.5625Z" fill="#4AF11F"/>
</svg>