<svg width="26" height="25" viewBox="0 0 26 25" fill="none" xmlns="http://www.w3.org/2000/svg">
<path d="M21.7058 21.5247V22.0247H22.2058H24.6386V22.7006H21.0299V5.60356V5.10356H20.5299H17.597H17.097V5.60356V24.4263L4.61946 22.7053L4.58546 22.7006H4.55114H0.5V22.0247H3.77079H4.27079V21.5247V2.80499L17.097 0.593584V3.92765V4.42765H17.597H21.7058V21.5247ZM15.8528 23.5724L16.4211 23.6508V23.0771V1.98988V1.39631L15.8362 1.49715L5.36176 3.30283L4.9467 3.37439V3.79557V21.6324V22.0681L5.37838 22.1277L15.8528 23.5724Z" fill="#EDF2FC" stroke="#EDF2FC"/>
<path d="M13.0693 11.9691H13.7452V14.3209H13.0693V11.9691Z" fill="#EDF2FC" stroke="#EDF2FC"/>
</svg>
