<svg width="27" height="25" viewBox="0 0 27 25" fill="none" xmlns="http://www.w3.org/2000/svg">
<path d="M13.5005 22.2664C20.454 22.2661 25.8125 17.4039 25.8125 11.7204C25.8125 6.03668 20.4537 1.17434 13.5 1.17434C6.54622 1.17434 1.1875 6.0384 1.1875 11.7204C1.1875 14.3258 2.29245 16.7299 4.16628 18.5945C4.28933 18.717 4.38336 18.8648 4.44194 19.027C4.5003 19.1886 4.52211 19.3608 4.50593 19.5315C4.39023 20.6342 4.17162 21.7238 3.85289 22.7864L3.6059 23.6098L4.44376 23.4174C6.83707 22.8675 8.31259 22.2277 9.00119 21.8816L8.77669 21.4349L9.0012 21.8816C9.26234 21.7504 9.56346 21.7192 9.84667 21.7943C11.0384 22.1107 12.267 22.2695 13.5005 22.2664ZM13.5005 22.2664C13.5003 22.2664 13.5002 22.2664 13.5 22.2664V21.7664L13.5013 22.2664C13.501 22.2664 13.5008 22.2664 13.5005 22.2664ZM2.90741 23.4858L2.91073 23.4762L2.91367 23.4665L2.91581 23.4594C3.34275 22.2275 3.69289 20.8057 3.82205 19.4705L3.84485 19.2348L3.67697 19.0678C1.68989 17.0914 0.5 14.5195 0.5 11.7204C0.5 5.58755 6.25205 0.5 13.5 0.5C20.7479 0.5 26.5 5.58755 26.5 11.7204C26.5 17.8532 20.7479 22.9407 13.5 22.9407L13.4989 22.9407C12.2054 22.9436 10.9172 22.7769 9.66777 22.4451L9.48458 22.3965L9.31518 22.4815C8.47787 22.9017 6.63248 23.6889 3.59058 24.2879C3.23705 24.3574 2.8825 24.4216 2.52706 24.4807C2.66413 24.153 2.79097 23.8213 2.90741 23.4858Z" fill="#EDF2FC" stroke="#EDF2FC"/>
</svg>
